<mxfile host="app.diagrams.net" modified="2023-08-14T20:39:55.597Z" agent="Mozilla/5.0 (X11; Linux x86_64) AppleWebKit/537.36 (KHTML, like Gecko) Chrome/110.0.0.0 Safari/537.36" etag="j6M7tuafSXPXbNjCtPKs" version="21.6.8" type="device">
  <diagram name="Page-1" id="dlAfg4TCPyiJZj9975YS">
    <mxGraphModel dx="1126" dy="1124" grid="1" gridSize="10" guides="1" tooltips="1" connect="1" arrows="1" fold="1" page="1" pageScale="1" pageWidth="850" pageHeight="1100" math="0" shadow="0">
      <root>
        <mxCell id="0" />
        <mxCell id="1" parent="0" />
        <mxCell id="0HZQEWsj-Y9oxAflQask-1" value="dispositivos" style="sketch=0;outlineConnect=0;gradientColor=none;fontColor=#545B64;strokeColor=none;fillColor=#000000;dashed=0;verticalLabelPosition=bottom;verticalAlign=top;align=center;html=1;fontSize=12;fontStyle=0;aspect=fixed;shape=mxgraph.aws4.illustration_devices;pointerEvents=1" vertex="1" parent="1">
          <mxGeometry x="180" y="240" width="100" height="73" as="geometry" />
        </mxCell>
        <mxCell id="0HZQEWsj-Y9oxAflQask-2" value="" style="endArrow=none;dashed=1;html=1;rounded=0;" edge="1" parent="1">
          <mxGeometry width="50" height="50" relative="1" as="geometry">
            <mxPoint x="304.5" y="440" as="sourcePoint" />
            <mxPoint x="305" y="130" as="targetPoint" />
          </mxGeometry>
        </mxCell>
        <mxCell id="0HZQEWsj-Y9oxAflQask-3" value="" style="rounded=1;whiteSpace=wrap;html=1;dashed=1;dashPattern=8 8;" vertex="1" parent="1">
          <mxGeometry x="350" y="180" width="200" height="210" as="geometry" />
        </mxCell>
        <mxCell id="0HZQEWsj-Y9oxAflQask-4" value="Servidor web" style="text;html=1;strokeColor=none;fillColor=none;align=center;verticalAlign=middle;whiteSpace=wrap;rounded=0;" vertex="1" parent="1">
          <mxGeometry x="385" y="180" width="120" height="30" as="geometry" />
        </mxCell>
        <mxCell id="0HZQEWsj-Y9oxAflQask-5" value="Front-end&lt;br&gt;(HTML, CSS, Javascript)" style="rounded=0;whiteSpace=wrap;html=1;strokeWidth=3;" vertex="1" parent="1">
          <mxGeometry x="386" y="240" width="130" height="71" as="geometry" />
        </mxCell>
        <mxCell id="0HZQEWsj-Y9oxAflQask-7" value="" style="sketch=0;outlineConnect=0;fontColor=#232F3E;gradientColor=none;fillColor=#232F3D;strokeColor=none;dashed=0;verticalLabelPosition=bottom;verticalAlign=top;align=center;html=1;fontSize=12;fontStyle=0;aspect=fixed;pointerEvents=1;shape=mxgraph.aws4.user;" vertex="1" parent="1">
          <mxGeometry x="40" y="242" width="70" height="70" as="geometry" />
        </mxCell>
        <mxCell id="0HZQEWsj-Y9oxAflQask-8" value="" style="endArrow=classic;startArrow=classic;html=1;rounded=0;" edge="1" parent="1" source="0HZQEWsj-Y9oxAflQask-7" target="0HZQEWsj-Y9oxAflQask-1">
          <mxGeometry width="50" height="50" relative="1" as="geometry">
            <mxPoint x="390" y="430" as="sourcePoint" />
            <mxPoint x="440" y="380" as="targetPoint" />
          </mxGeometry>
        </mxCell>
        <mxCell id="0HZQEWsj-Y9oxAflQask-10" value="" style="endArrow=classic;startArrow=classic;html=1;rounded=0;entryX=0;entryY=0.5;entryDx=0;entryDy=0;" edge="1" parent="1" source="0HZQEWsj-Y9oxAflQask-1" target="0HZQEWsj-Y9oxAflQask-5">
          <mxGeometry width="50" height="50" relative="1" as="geometry">
            <mxPoint x="400" y="430" as="sourcePoint" />
            <mxPoint x="450" y="380" as="targetPoint" />
          </mxGeometry>
        </mxCell>
        <mxCell id="0HZQEWsj-Y9oxAflQask-11" value="" style="endArrow=classic;startArrow=classic;html=1;rounded=0;exitX=1;exitY=0.5;exitDx=0;exitDy=0;" edge="1" parent="1" source="0HZQEWsj-Y9oxAflQask-5" target="0HZQEWsj-Y9oxAflQask-14">
          <mxGeometry width="50" height="50" relative="1" as="geometry">
            <mxPoint x="480" y="287" as="sourcePoint" />
            <mxPoint x="610" y="276" as="targetPoint" />
          </mxGeometry>
        </mxCell>
        <mxCell id="0HZQEWsj-Y9oxAflQask-13" value="Internet" style="sketch=0;outlineConnect=0;fontColor=#232F3E;gradientColor=none;strokeColor=#232F3E;fillColor=#ffffff;dashed=0;verticalLabelPosition=bottom;verticalAlign=top;align=center;html=1;fontSize=12;fontStyle=0;aspect=fixed;shape=mxgraph.aws4.resourceIcon;resIcon=mxgraph.aws4.internet_alt1;" vertex="1" parent="1">
          <mxGeometry x="260" y="10" width="90" height="90" as="geometry" />
        </mxCell>
        <mxCell id="0HZQEWsj-Y9oxAflQask-14" value="" style="rounded=1;whiteSpace=wrap;html=1;dashed=1;dashPattern=8 8;" vertex="1" parent="1">
          <mxGeometry x="589" y="150" width="360" height="260" as="geometry" />
        </mxCell>
        <mxCell id="0HZQEWsj-Y9oxAflQask-15" value="NÃ³ da rede blockchain" style="text;html=1;strokeColor=none;fillColor=none;align=center;verticalAlign=middle;whiteSpace=wrap;rounded=0;" vertex="1" parent="1">
          <mxGeometry x="700" y="160" width="150" height="30" as="geometry" />
        </mxCell>
        <mxCell id="0HZQEWsj-Y9oxAflQask-18" style="edgeStyle=orthogonalEdgeStyle;rounded=0;orthogonalLoop=1;jettySize=auto;html=1;" edge="1" parent="1" source="0HZQEWsj-Y9oxAflQask-16" target="0HZQEWsj-Y9oxAflQask-17">
          <mxGeometry relative="1" as="geometry" />
        </mxCell>
        <mxCell id="0HZQEWsj-Y9oxAflQask-16" value="Contrato inteligente" style="shape=document;whiteSpace=wrap;html=1;boundedLbl=1;" vertex="1" parent="1">
          <mxGeometry x="630" y="243" width="120" height="70" as="geometry" />
        </mxCell>
        <mxCell id="0HZQEWsj-Y9oxAflQask-17" value="Blockchain" style="sketch=0;outlineConnect=0;fontColor=#232F3E;gradientColor=none;fillColor=#010203;strokeColor=none;dashed=0;verticalLabelPosition=bottom;verticalAlign=top;align=center;html=1;fontSize=12;fontStyle=0;aspect=fixed;pointerEvents=1;shape=mxgraph.aws4.rds_multi_az_db_cluster;strokeWidth=1;" vertex="1" parent="1">
          <mxGeometry x="820" y="239" width="78" height="78" as="geometry" />
        </mxCell>
      </root>
    </mxGraphModel>
  </diagram>
</mxfile>
